<svg width="16" height="16" xmlns="http://www.w3.org/2000/svg" fill="currentColor" class="bi bi-pencil">
 <g id="Layer_1">
  <title>Layer 1</title>
  <g>
   <path transform="rotate(90 8 8)" d="m15.68871,0.26655a0.5,0.5 0 0 1 0.132,0.584c-1.53,3.43 -4.743,8.17 -7.095,10.64a6.067,6.067 0 0 1 -2.373,1.534c-0.018,0.227 -0.06,0.538 -0.16,0.868c-0.201,0.659 -0.667,1.479 -1.708,1.74a8.118,8.118 0 0 1 -3.078,0.132a3.659,3.659 0 0 1 -0.562,-0.135a1.382,1.382 0 0 1 -0.466,-0.247a0.714,0.714 0 0 1 -0.204,-0.288a0.622,0.622 0 0 1 0.004,-0.443c0.095,-0.245 0.316,-0.38 0.461,-0.452c0.394,-0.197 0.625,-0.453 0.867,-0.826c0.095,-0.144 0.184,-0.297 0.287,-0.472l0.117,-0.198c0.151,-0.255 0.326,-0.54 0.546,-0.848c0.528,-0.739 1.201,-0.925 1.746,-0.896c0.126,0.007 0.243,0.025 0.348,0.048c0.062,-0.172 0.142,-0.38 0.238,-0.608c0.261,-0.619 0.658,-1.419 1.187,-2.069c2.176,-2.67 6.18,-6.206 9.117,-8.104a0.5,0.5 0 0 1 0.596,0.04z"/>
  </g>
 </g>

</svg>